<svg id="visual" viewBox="0 0 900 600" width="900" height="600" xmlns="http://www.w3.org/2000/svg" xmlns:xlink="http://www.w3.org/1999/xlink" version="1.1"><g stroke-width="1" stroke-linejoin="bevel"><path d="M445.1 289L483.9 287L453.9 196Z" fill="#246688" stroke="#246688"></path><path d="M453.9 196L435.1 196L445.1 289Z" fill="#081a28" stroke="#081a28"></path><path d="M483.9 287L460.9 187L453.9 196Z" fill="#297ea6" stroke="#297ea6"></path><path d="M453.9 196L460.9 187L435.1 196Z" fill="#1d4e6b" stroke="#1d4e6b"></path><path d="M460.9 187L414.1 170L435.1 196Z" fill="#277297" stroke="#277297"></path><path d="M435.1 196L344.3 265L445.1 289Z" fill="#297ea6" stroke="#297ea6"></path><path d="M341.3 183L344.3 265L435.1 196Z" fill="#00101c" stroke="#00101c"></path><path d="M344.3 265L382.1 338L445.1 289Z" fill="#277297" stroke="#277297"></path><path d="M445.1 289L456.9 389L483.9 287Z" fill="#277297" stroke="#277297"></path><path d="M580.7 187L470.9 113L460.9 187Z" fill="#00101c" stroke="#00101c"></path><path d="M460.9 187L470.9 113L414.1 170Z" fill="#081a28" stroke="#081a28"></path><path d="M483.9 287L580.7 187L460.9 187Z" fill="#205a7a" stroke="#205a7a"></path><path d="M597.7 285L596.7 242L483.9 287Z" fill="#19435d" stroke="#19435d"></path><path d="M483.9 287L596.7 242L580.7 187Z" fill="#19435d" stroke="#19435d"></path><path d="M384.1 103L341.3 183L414.1 170Z" fill="#19435d" stroke="#19435d"></path><path d="M414.1 170L341.3 183L435.1 196Z" fill="#297ea6" stroke="#297ea6"></path><path d="M621.5 361L597.7 285L576.7 406Z" fill="#205a7a" stroke="#205a7a"></path><path d="M341.3 183L322.3 208L344.3 265Z" fill="#277297" stroke="#277297"></path><path d="M382.1 338L456.9 389L445.1 289Z" fill="#246688" stroke="#246688"></path><path d="M470.9 113L384.1 103L414.1 170Z" fill="#246688" stroke="#246688"></path><path d="M341.3 183L275.5 129L322.3 208Z" fill="#19435d" stroke="#19435d"></path><path d="M344.3 265L355.3 377L382.1 338Z" fill="#0c2435" stroke="#0c2435"></path><path d="M382.1 338L355.3 377L456.9 389Z" fill="#1d4e6b" stroke="#1d4e6b"></path><path d="M237.5 288L355.3 377L344.3 265Z" fill="#081a28" stroke="#081a28"></path><path d="M656.5 267L652.5 241L596.7 242Z" fill="#081a28" stroke="#081a28"></path><path d="M596.7 242L652.5 241L580.7 187Z" fill="#081a28" stroke="#081a28"></path><path d="M597.7 285L656.5 267L596.7 242Z" fill="#1d4e6b" stroke="#1d4e6b"></path><path d="M621.5 361L656.5 267L597.7 285Z" fill="#205a7a" stroke="#205a7a"></path><path d="M576.7 406L597.7 285L483.9 287Z" fill="#19435d" stroke="#19435d"></path><path d="M577.7 432L576.7 406L456.9 389Z" fill="#277297" stroke="#277297"></path><path d="M456.9 389L576.7 406L483.9 287Z" fill="#0c2435" stroke="#0c2435"></path><path d="M477.9 0L357.3 64L384.1 103Z" fill="#246688" stroke="#246688"></path><path d="M384.1 103L275.5 129L341.3 183Z" fill="#15384f" stroke="#15384f"></path><path d="M355.3 377L440.1 453L456.9 389Z" fill="#081a28" stroke="#081a28"></path><path d="M666.5 183L605.7 89L580.7 187Z" fill="#00101c" stroke="#00101c"></path><path d="M580.7 187L605.7 89L470.9 113Z" fill="#00101c" stroke="#00101c"></path><path d="M470.9 113L477.9 0L384.1 103Z" fill="#0c2435" stroke="#0c2435"></path><path d="M652.5 241L666.5 183L580.7 187Z" fill="#112e42" stroke="#112e42"></path><path d="M740.4 253L666.5 183L652.5 241Z" fill="#112e42" stroke="#112e42"></path><path d="M357.3 64L275.5 129L384.1 103Z" fill="#277297" stroke="#277297"></path><path d="M322.3 208L237.5 288L344.3 265Z" fill="#1d4e6b" stroke="#1d4e6b"></path><path d="M507.9 488L577.7 432L456.9 389Z" fill="#081a28" stroke="#081a28"></path><path d="M576.7 406L668.5 432L621.5 361Z" fill="#0c2435" stroke="#0c2435"></path><path d="M220.5 188L237.5 288L322.3 208Z" fill="#112e42" stroke="#112e42"></path><path d="M355.3 377L331.3 475L440.1 453Z" fill="#00101c" stroke="#00101c"></path><path d="M565.7 0L477.9 0L470.9 113Z" fill="#277297" stroke="#277297"></path><path d="M275.5 129L220.5 188L322.3 208Z" fill="#277297" stroke="#277297"></path><path d="M440.1 453L507.9 488L456.9 389Z" fill="#15384f" stroke="#15384f"></path><path d="M477.9 0L372.1 0L357.3 64Z" fill="#1d4e6b" stroke="#1d4e6b"></path><path d="M357.3 64L221.5 74L275.5 129Z" fill="#112e42" stroke="#112e42"></path><path d="M176.6 137L183.6 197L220.5 188Z" fill="#15384f" stroke="#15384f"></path><path d="M774.4 58L622.5 39L605.7 89Z" fill="#00101c" stroke="#00101c"></path><path d="M605.7 89L565.7 0L470.9 113Z" fill="#297ea6" stroke="#297ea6"></path><path d="M372.1 0L362.3 0L357.3 64Z" fill="#081a28" stroke="#081a28"></path><path d="M668.5 432L700.4 359L621.5 361Z" fill="#00101c" stroke="#00101c"></path><path d="M621.5 361L700.4 359L656.5 267Z" fill="#1d4e6b" stroke="#1d4e6b"></path><path d="M656.5 267L740.4 253L652.5 241Z" fill="#00101c" stroke="#00101c"></path><path d="M668.5 432L576.7 406L577.7 432Z" fill="#19435d" stroke="#19435d"></path><path d="M622.5 39L565.7 0L605.7 89Z" fill="#00101c" stroke="#00101c"></path><path d="M263.5 460L331.3 475L355.3 377Z" fill="#15384f" stroke="#15384f"></path><path d="M440.1 453L465.9 550L507.9 488Z" fill="#112e42" stroke="#112e42"></path><path d="M331.3 475L388.1 505L440.1 453Z" fill="#1d4e6b" stroke="#1d4e6b"></path><path d="M753.4 318L740.4 253L656.5 267Z" fill="#277297" stroke="#277297"></path><path d="M666.5 183L736.4 174L605.7 89Z" fill="#00101c" stroke="#00101c"></path><path d="M637.5 539L668.5 432L577.7 432Z" fill="#19435d" stroke="#19435d"></path><path d="M153.6 338L209.5 364L237.5 288Z" fill="#0c2435" stroke="#0c2435"></path><path d="M237.5 288L209.5 364L355.3 377Z" fill="#277297" stroke="#277297"></path><path d="M176.6 137L220.5 188L275.5 129Z" fill="#00101c" stroke="#00101c"></path><path d="M220.5 188L183.6 197L237.5 288Z" fill="#081a28" stroke="#081a28"></path><path d="M740.4 253L736.4 174L666.5 183Z" fill="#277297" stroke="#277297"></path><path d="M721.4 0L618.5 0L622.5 39Z" fill="#246688" stroke="#246688"></path><path d="M622.5 39L618.5 0L565.7 0Z" fill="#15384f" stroke="#15384f"></path><path d="M209.5 364L263.5 460L355.3 377Z" fill="#15384f" stroke="#15384f"></path><path d="M331.3 475L308.3 537L388.1 505Z" fill="#205a7a" stroke="#205a7a"></path><path d="M252.5 0L221.5 74L357.3 64Z" fill="#00101c" stroke="#00101c"></path><path d="M792.2 400L753.4 318L700.4 359Z" fill="#205a7a" stroke="#205a7a"></path><path d="M700.4 359L753.4 318L656.5 267Z" fill="#0c2435" stroke="#0c2435"></path><path d="M832.2 187L774.4 58L736.4 174Z" fill="#246688" stroke="#246688"></path><path d="M221.5 74L176.6 137L275.5 129Z" fill="#205a7a" stroke="#205a7a"></path><path d="M478.9 600L465.9 550L401.1 600Z" fill="#0c2435" stroke="#0c2435"></path><path d="M388.1 505L465.9 550L440.1 453Z" fill="#00101c" stroke="#00101c"></path><path d="M507.9 488L536.7 559L577.7 432Z" fill="#0c2435" stroke="#0c2435"></path><path d="M362.3 0L252.5 0L357.3 64Z" fill="#205a7a" stroke="#205a7a"></path><path d="M221.5 74L144.6 87L176.6 137Z" fill="#19435d" stroke="#19435d"></path><path d="M107.8 254L153.6 338L237.5 288Z" fill="#00101c" stroke="#00101c"></path><path d="M139.6 453L230.5 503L263.5 460Z" fill="#081a28" stroke="#081a28"></path><path d="M133.6 366L153.6 338L44.8 294Z" fill="#246688" stroke="#246688"></path><path d="M465.9 550L536.7 559L507.9 488Z" fill="#297ea6" stroke="#297ea6"></path><path d="M230.5 503L308.3 537L263.5 460Z" fill="#112e42" stroke="#112e42"></path><path d="M263.5 460L308.3 537L331.3 475Z" fill="#081a28" stroke="#081a28"></path><path d="M465.9 550L478.9 600L536.7 559Z" fill="#277297" stroke="#277297"></path><path d="M536.7 559L637.5 539L577.7 432Z" fill="#1d4e6b" stroke="#1d4e6b"></path><path d="M668.5 432L771.4 419L700.4 359Z" fill="#112e42" stroke="#112e42"></path><path d="M139.6 453L263.5 460L209.5 364Z" fill="#112e42" stroke="#112e42"></path><path d="M107.8 254L237.5 288L183.6 197Z" fill="#112e42" stroke="#112e42"></path><path d="M153.6 338L133.6 366L209.5 364Z" fill="#297ea6" stroke="#297ea6"></path><path d="M137.6 0L144.6 87L221.5 74Z" fill="#15384f" stroke="#15384f"></path><path d="M95.8 185L107.8 254L183.6 197Z" fill="#246688" stroke="#246688"></path><path d="M95.8 185L183.6 197L176.6 137Z" fill="#15384f" stroke="#15384f"></path><path d="M794.2 445L771.4 419L730.4 535Z" fill="#0c2435" stroke="#0c2435"></path><path d="M825.2 208L736.4 174L740.4 253Z" fill="#19435d" stroke="#19435d"></path><path d="M774.4 58L605.7 89L736.4 174Z" fill="#246688" stroke="#246688"></path><path d="M774.4 58L721.4 0L622.5 39Z" fill="#277297" stroke="#277297"></path><path d="M401.1 600L465.9 550L388.1 505Z" fill="#205a7a" stroke="#205a7a"></path><path d="M536.7 559L587.7 600L637.5 539Z" fill="#0c2435" stroke="#0c2435"></path><path d="M351.3 600L401.1 600L388.1 505Z" fill="#297ea6" stroke="#297ea6"></path><path d="M351.3 600L388.1 505L308.3 537Z" fill="#1d4e6b" stroke="#1d4e6b"></path><path d="M825.2 276L740.4 253L753.4 318Z" fill="#246688" stroke="#246688"></path><path d="M792.2 400L825.2 276L753.4 318Z" fill="#19435d" stroke="#19435d"></path><path d="M825.2 276L825.2 208L740.4 253Z" fill="#00101c" stroke="#00101c"></path><path d="M771.4 419L792.2 400L700.4 359Z" fill="#112e42" stroke="#112e42"></path><path d="M144.6 87L95.8 185L176.6 137Z" fill="#0c2435" stroke="#0c2435"></path><path d="M278.5 600L351.3 600L308.3 537Z" fill="#0c2435" stroke="#0c2435"></path><path d="M900 257L832.2 187L825.2 208Z" fill="#0c2435" stroke="#0c2435"></path><path d="M825.2 208L832.2 187L736.4 174Z" fill="#19435d" stroke="#19435d"></path><path d="M478.9 600L587.7 600L536.7 559Z" fill="#297ea6" stroke="#297ea6"></path><path d="M730.4 535L771.4 419L668.5 432Z" fill="#00101c" stroke="#00101c"></path><path d="M771.4 419L794.2 445L792.2 400Z" fill="#081a28" stroke="#081a28"></path><path d="M133.6 366L139.6 453L209.5 364Z" fill="#00101c" stroke="#00101c"></path><path d="M230.5 503L278.5 600L308.3 537Z" fill="#277297" stroke="#277297"></path><path d="M101.8 450L139.6 453L133.6 366Z" fill="#1d4e6b" stroke="#1d4e6b"></path><path d="M101.8 450L133.6 366L59.8 406Z" fill="#0c2435" stroke="#0c2435"></path><path d="M730.4 535L668.5 432L637.5 539Z" fill="#0c2435" stroke="#0c2435"></path><path d="M900 279L900 257L825.2 276Z" fill="#277297" stroke="#277297"></path><path d="M660.5 600L730.4 535L637.5 539Z" fill="#277297" stroke="#277297"></path><path d="M171.6 535L278.5 600L230.5 503Z" fill="#112e42" stroke="#112e42"></path><path d="M252.5 0L137.6 0L221.5 74Z" fill="#1d4e6b" stroke="#1d4e6b"></path><path d="M144.6 87L71.8 61L95.8 185Z" fill="#15384f" stroke="#15384f"></path><path d="M856.2 45L788.2 0L774.4 58Z" fill="#112e42" stroke="#112e42"></path><path d="M774.4 58L788.2 0L721.4 0Z" fill="#1d4e6b" stroke="#1d4e6b"></path><path d="M587.7 600L660.5 600L637.5 539Z" fill="#246688" stroke="#246688"></path><path d="M139.6 453L171.6 535L230.5 503Z" fill="#15384f" stroke="#15384f"></path><path d="M44.8 294L153.6 338L107.8 254Z" fill="#112e42" stroke="#112e42"></path><path d="M139.6 453L84.8 525L171.6 535Z" fill="#1d4e6b" stroke="#1d4e6b"></path><path d="M0 212L107.8 254L95.8 185Z" fill="#19435d" stroke="#19435d"></path><path d="M0 212L44.8 294L107.8 254Z" fill="#205a7a" stroke="#205a7a"></path><path d="M103.8 0L71.8 61L144.6 87Z" fill="#297ea6" stroke="#297ea6"></path><path d="M137.6 0L103.8 0L144.6 87Z" fill="#00101c" stroke="#00101c"></path><path d="M44.8 294L59.8 406L133.6 366Z" fill="#277297" stroke="#277297"></path><path d="M101.8 450L84.8 525L139.6 453Z" fill="#1d4e6b" stroke="#1d4e6b"></path><path d="M825.2 276L900 257L825.2 208Z" fill="#19435d" stroke="#19435d"></path><path d="M832.2 187L856.2 45L774.4 58Z" fill="#081a28" stroke="#081a28"></path><path d="M900 279L825.2 276L900 383Z" fill="#246688" stroke="#246688"></path><path d="M900 383L825.2 276L792.2 400Z" fill="#0c2435" stroke="#0c2435"></path><path d="M900 140L856.2 45L832.2 187Z" fill="#205a7a" stroke="#205a7a"></path><path d="M730.4 535L806.2 531L794.2 445Z" fill="#246688" stroke="#246688"></path><path d="M794.2 445L900 383L792.2 400Z" fill="#15384f" stroke="#15384f"></path><path d="M751.4 600L806.2 531L730.4 535Z" fill="#00101c" stroke="#00101c"></path><path d="M900 257L900 140L832.2 187Z" fill="#277297" stroke="#277297"></path><path d="M660.5 600L751.4 600L730.4 535Z" fill="#081a28" stroke="#081a28"></path><path d="M900 486L900 383L794.2 445Z" fill="#277297" stroke="#277297"></path><path d="M0 153L0 212L95.8 185Z" fill="#246688" stroke="#246688"></path><path d="M44.8 294L0 378L59.8 406Z" fill="#297ea6" stroke="#297ea6"></path><path d="M0 212L0 276L44.8 294Z" fill="#19435d" stroke="#19435d"></path><path d="M0 435L101.8 450L59.8 406Z" fill="#15384f" stroke="#15384f"></path><path d="M0 435L84.8 525L101.8 450Z" fill="#15384f" stroke="#15384f"></path><path d="M171.6 535L124.6 600L278.5 600Z" fill="#0c2435" stroke="#0c2435"></path><path d="M71.8 61L0 153L95.8 185Z" fill="#205a7a" stroke="#205a7a"></path><path d="M0 97L0 153L71.8 61Z" fill="#112e42" stroke="#112e42"></path><path d="M900 140L900 49L856.2 45Z" fill="#15384f" stroke="#15384f"></path><path d="M856.2 45L900 0L788.2 0Z" fill="#19435d" stroke="#19435d"></path><path d="M0 276L0 378L44.8 294Z" fill="#112e42" stroke="#112e42"></path><path d="M0 0L0 97L71.8 61Z" fill="#19435d" stroke="#19435d"></path><path d="M107.8 600L124.6 600L84.8 525Z" fill="#15384f" stroke="#15384f"></path><path d="M84.8 525L124.6 600L171.6 535Z" fill="#19435d" stroke="#19435d"></path><path d="M0 378L0 435L59.8 406Z" fill="#297ea6" stroke="#297ea6"></path><path d="M900 488L900 486L806.2 531Z" fill="#1d4e6b" stroke="#1d4e6b"></path><path d="M806.2 531L900 486L794.2 445Z" fill="#081a28" stroke="#081a28"></path><path d="M900 49L900 0L856.2 45Z" fill="#246688" stroke="#246688"></path><path d="M900 600L900 488L806.2 531Z" fill="#297ea6" stroke="#297ea6"></path><path d="M0 560L107.8 600L84.8 525Z" fill="#205a7a" stroke="#205a7a"></path><path d="M751.4 600L833.2 600L806.2 531Z" fill="#246688" stroke="#246688"></path><path d="M103.8 0L0 0L71.8 61Z" fill="#15384f" stroke="#15384f"></path><path d="M0 435L0 560L84.8 525Z" fill="#0c2435" stroke="#0c2435"></path><path d="M833.2 600L900 600L806.2 531Z" fill="#19435d" stroke="#19435d"></path><path d="M0 560L0 600L107.8 600Z" fill="#205a7a" stroke="#205a7a"></path></g></svg>